<svg xmlns="http://www.w3.org/2000/svg" viewBox="0 0 558 34.164">
  <g fill="#d732e6" data-name="cyberphunk">
    <path d="M.084 26.732a5.708 5.708 0 0 0 1.8 5.424q2.279 2.01 6.772 2.007h36.26l1.26-8.93h-34.1l2.276-16.3h34.1l1.259-8.93H3.859Z" data-name="c"/>
    <path d="M93.823 0 80.578 10.129 70.267 0h-16l19.3 19-2.158 15.163h11.689L85.256 19 109.83 0Z" data-name="y"/>
    <path d="M269.7.001h-39.3l-1.273 8.93h.016l-.726 5.155h-.01l-2.815 20.078h11.686l1.578-11.148h11.309l9.95 11.148h14.5l-9.83-11.388a13.82 13.82 0 0 0 7.431-1.918 7.187 7.187 0 0 0 3.357-5.273l1.2-8.692a5.936 5.936 0 0 0-1.139-4.976Q274.017.001 269.702.001m-5.694 14.085h-23.89l.728-5.155h23.879Z" data-name="b"/>
    <path d="M333.413 1.948A5.016 5.016 0 0 0 331.195.51a11.386 11.386 0 0 0-3.716-.509h-40.245l-4.289 34.163h11.689l1.605-11.148h28.3a7.88 7.88 0 0 0 2.761-.542 9.626 9.626 0 0 0 2.668-1.529 10.42 10.42 0 0 0 2.128-2.337 7.262 7.262 0 0 0 1.138-3.026l1.2-8.692a9.807 9.807 0 0 0-.028-2.759 4.545 4.545 0 0 0-.989-2.186m-11.748 12.138h-24.145l.742-5.155h24.117Z" data-name="e"/>
    <path d="M376.282 12.527h-24.275L353.744 0h-11.615l-1.33 8.93-3.536 25.233h11.687l1.8-12.647h24.273l-1.8 12.647h11.689L389.705 0h-11.686Z" data-name="r"/>
    <path d="M432.075 25.174H405.4L408.938 0h-11.685l-4.8 34.163h50.107L447.36 0h-11.748Z" data-name="p"/>
    <path d="M487.457 18.58 464.02.001h-9.07l-1.12 8.93-3.53 25.233h11.689l2.575-18.4 23.676 18.4h8.81L501.845.001h-11.811Z" data-name="h"/>
    <path d="M558 0h-16.062l-16.243 12.527h-6.175L521.257 0h-11.68l-1.265 8.93-3.536 25.233h11.689l1.8-12.645h5.993l12.885 12.645H553.2l-17.379-17.082Z" data-name="u"/>
    <path d="m175.744 0-4.515 34.163h45.011l1.259-9.048H182.99l.476-3.6h23.185l1.259-8.991h-23.256l.476-3.6h34.706l1.259-8.93h-45.351Z" data-name="n"/>
    <path d="m114.861 0-1.317 8.931-3.718 25.232h42.794a8.277 8.277 0 0 0 2.847-.539 9.982 9.982 0 0 0 2.727-1.528 9.458 9.458 0 0 0 2.127-2.338 7.44 7.44 0 0 0 1.107-3.026l.9-6.233a3.753 3.753 0 0 0-.087-.629 8.8 8.8 0 0 0-.272-.99c-.12-.36-.259-.728-.419-1.109a5.122 5.122 0 0 0-.539-.988 4.132 4.132 0 0 0 .718-.84 13.728 13.728 0 0 0 .78-1.257q.36-.662.631-1.2a2.515 2.515 0 0 0 .268-.659l1.8-12.826h-50.347Zm35.062 25.233h-26.98l.435-3.716h27.084Zm2.276-16.3-.478 3.655h-27.295l.429-3.655Z" data-name="k"/>
  </g>
</svg>
